<?xml version="1.0" standalone="no"?>
<!DOCTYPE svg PUBLIC "-//W3C//DTD SVG 20010904//EN"
 "http://www.w3.org/TR/2001/REC-SVG-20010904/DTD/svg10.dtd">
<svg version="1.0" xmlns="http://www.w3.org/2000/svg"
 width="512.000000pt" height="468.000000pt" viewBox="0 0 512.000000 468.000000"
 preserveAspectRatio="xMidYMid meet">

<g transform="translate(0.000000,468.000000) scale(0.100000,-0.100000)"
fill="#FFFFFF" stroke="none">
<path d="M35 4644 l-25 -27 0 -1403 0 -1403 24 -28 24 -28 1107 -5 1107 -5
-333 -353 c-196 -207 -344 -372 -359 -400 l-25 -46 0 -444 0 -444 28 -24 c16
-14 41 -24 58 -24 20 0 591 284 1712 850 924 468 1689 858 1700 868 10 9 28
34 38 54 18 36 19 83 19 1436 0 1391 0 1398 -20 1420 -24 26 -61 37 -94 28
-16 -4 -457 -473 -1222 -1299 -658 -710 -1199 -1292 -1203 -1292 -4 0 -522
551 -1150 1225 -629 674 -1175 1258 -1214 1298 -64 64 -75 72 -110 72 -28 0
-44 -7 -62 -26z"/>
</g>
</svg>
